# Blender v2.79 (sub 0) OBJ File: ''
# www.blender.org
mtllib andra.mtl
o Cube
v 0.758021 -0.234540 -1.228229
v 0.301299 -1.000000 1.000000
v -1.926197 -0.618906 0.276900
v -1.000000 -1.000000 -1.000000
v 0.301299 1.000000 -0.999999
v 0.301298 1.776665 1.000001
v -0.938192 1.943243 -0.382254
v -1.241489 0.451826 -1.137836
vn 0.1041 -0.9923 -0.0677
vn 0.2445 0.7353 -0.6321
vn 0.9886 0.1065 0.1065
vn -0.4864 0.1952 0.8517
vn -0.9228 0.0976 -0.3727
vn -0.0369 0.0240 -0.9990
usemtl Material
s off
f 1//1 2//1 3//1 4//1
f 5//2 8//2 7//2 6//2
f 1//3 5//3 6//3 2//3
f 2//4 6//4 7//4 3//4
f 3//5 7//5 8//5 4//5
f 5//6 1//6 4//6 8//6
